<svg width="164" height="113" viewBox="0 0 164 113" fill="none" xmlns="http://www.w3.org/2000/svg">
<g clip-path="url(#clip0_477_9647)">
<path d="M88.349 0.934469C88.3592 0.931071 88.3388 0.854615 88.349 0.849518L88.4323 0.891993C88.4289 0.946362 88.3507 0.929372 88.349 0.934469Z" fill="#FFFEFE"/>
<path d="M0 17.4149L12.0257 17.4948L12.063 18.3494C11.0147 18.2118 9.14923 18.6179 8.94025 19.8564C8.73127 21.095 9.69291 23.4431 10.1075 24.68C12.0715 30.5501 14.3312 36.325 16.2256 42.2206L16.3972 42.0117L21.637 26.8156C20.4596 24.2705 19.9057 19.1853 16.6674 18.4581C16.404 18.3987 15.5019 18.3936 15.4594 18.3494C15.4254 18.3154 15.4849 17.5662 15.4594 17.4149H28.0321V18.3494H26.6304C26.4656 18.3494 25.7792 18.5805 25.5957 18.6739C23.7251 19.6152 25.0775 22.9198 25.5669 24.4251C27.4137 30.1049 29.5528 36.1755 31.6833 41.7551C31.7326 41.8859 31.8006 42.1799 31.9382 42.2206L38.3979 23.4057C38.6986 22.1127 39.6636 20.22 38.527 19.1106C37.8134 18.414 36.4508 18.3834 35.5078 18.3494V17.4149H45.0648C45.2585 17.4149 45.1803 18.1795 45.1922 18.3494C42.5673 18.2305 41.6481 20.1996 40.858 22.2979C37.4651 31.3129 34.7959 40.627 31.4319 49.6556C31.3775 49.8017 31.1753 50.4116 31.1345 50.4626C30.9918 50.6342 30.3224 50.5187 30.0795 50.5374L22.8077 30.0726L15.4696 50.4932L14.5385 50.534L3.75314 20.5004C3.14828 18.9152 1.62426 18.2831 0 18.3494V17.4149Z" fill="#FF0202"/>
<path d="M81.7229 111.201C81.7399 111.172 81.7926 111.067 81.8079 111.031C81.7909 111.048 81.8011 111.167 81.7229 111.201Z" fill="#2E2E2E"/>
<path d="M79.854 112.73C79.7163 112.57 79.5379 112.54 79.4003 112.368C79.0945 111.986 78.9229 110.678 78.5372 110.606L30.7523 109.417C30.6877 109.361 31.0326 108.946 31.0938 108.866C31.8923 107.837 32.7792 106.863 33.593 105.844L34.0229 105.757C38.8583 106.189 43.7005 106.651 48.5427 106.947C55.6684 104.369 63.5298 100.881 71.2756 102.663C75.9615 103.742 79.4938 106.863 81.5479 111.15C81.5411 111.231 81.6855 111.218 81.7229 111.203C81.6855 111.264 81.6634 111.332 81.5955 111.371C77.2001 104.568 68.9327 102.655 61.3177 104.432C58.5601 105.076 56.0082 106.367 53.3475 107.295L53.4733 107.465C54.2633 107.356 55.4356 107.771 56.1747 107.614C56.7167 107.5 57.8754 106.863 58.5092 106.636C65.5516 104.111 73.6305 103.601 78.962 109.757C79.363 110.219 80.2345 111.677 80.6219 111.92C80.977 112.142 82.4178 112.151 82.7423 111.838C83.2741 111.325 83.8773 110.183 84.443 109.546C90.4881 102.753 99.9687 104.503 107.443 107.618L109.757 107.422L109.84 107.295C107.128 106.311 104.503 105.011 101.669 104.379C94.8139 102.848 87.7085 104.22 82.9513 109.587C82.5452 110.046 82.2224 110.588 81.8061 111.033C83.2877 107.5 86.4716 104.515 90.0872 103.215C96.8204 100.796 103.978 103.069 110.394 105.339C111.767 105.825 114.057 106.991 115.404 106.953L129.251 105.759L129.676 105.851L132.524 109.417L84.652 110.606C84.5348 110.606 84.5076 110.662 84.4549 110.749C84.0913 111.349 84.1984 112.409 83.337 112.732H79.854V112.73ZM77.3054 109.417C73.9991 107.035 69.7125 106.415 65.7198 106.88C64.0565 107.074 62.4254 107.509 60.8249 107.974L77.3054 109.417ZM102.366 107.974C97.4558 106.348 91.8185 106.094 87.1581 108.608C86.7588 108.824 86.2542 109.072 85.9704 109.417L102.366 107.974Z" fill="#2E2E2E"/>
<path d="M163.106 29.2231V30.6673C163.033 30.7913 162.768 31.0071 162.639 31.0071H158.858C158.982 31.4251 159.287 31.7326 159.468 32.1387C160.405 34.2318 160.296 37.0539 159.098 39.018C157.2 42.1272 153.462 43.1568 149.993 42.7185C149.516 42.6573 148.435 42.309 148.066 42.4262C147.818 42.5061 147.093 43.3386 146.93 43.585C145.893 45.1379 146.333 46.0519 148.136 46.3595C152.686 47.1342 163.39 44.8065 162.855 52.3757C162.612 55.8128 158.729 58.6842 155.697 59.6594C151.802 60.9116 144.962 60.6737 141.906 57.6002C140.062 55.7465 141.651 53.7927 142.974 52.2041C143.297 51.815 145.314 49.8951 145.344 49.7269C145.373 49.5689 144.369 48.9861 144.16 48.8043C143.21 47.9854 142.896 47.2548 143.331 46.0196C143.926 44.3257 145.587 43.0753 146.879 41.9216L144.836 40.3976C138.861 32.9984 147.021 24.8142 155.25 27.9455C155.693 28.1137 156.633 28.7338 156.95 28.7933C158.145 29.0159 160.274 28.7236 161.618 28.7984C161.986 28.8188 162.394 28.936 162.792 28.8986L163.104 29.2231H163.106ZM150.771 28.4841C145.842 28.9462 146.308 37.2765 148.668 40.1376C150.676 42.574 154.382 41.9148 155.464 38.9517C156.682 35.6149 155.591 28.0321 150.773 28.4841H150.771ZM146.77 49.8832C145.377 51.2526 143.351 53.9371 145.31 55.6412C147.973 57.957 155.535 58.0589 158.519 56.3667C160.724 55.1179 162.809 51.6281 159.183 50.7718C156.796 50.2077 154.042 50.4643 151.593 50.291L146.768 49.8849L146.77 49.8832Z" fill="#FF0202"/>
<path d="M88.3491 0.849506C88.4697 0.795137 88.8248 0.676206 88.8435 0.657517C88.8826 0.615041 88.8181 0.470624 88.9149 0.419654C89.0117 0.368683 89.2173 0.428149 89.3125 0.394168C90.1297 0.0985389 90.5205 -0.00510128 91.4515 0.0866458C92.7275 0.212373 94.7527 1.89101 95.1282 3.1228C95.2777 3.61211 95.0704 3.56454 94.9991 3.97231C94.9447 4.28323 94.9549 4.75725 94.8717 5.03419C94.751 5.43176 94.1955 5.56429 94.1309 5.90749C94.0578 6.29317 94.4078 7.1121 94.2634 7.31258C94.1479 7.47399 93.7639 7.32447 93.6144 7.42811C93.5107 7.50117 93.5345 7.75942 93.4785 7.88005C93.3018 8.26403 92.9076 8.47641 92.7071 8.68539C92.6188 8.77713 92.5984 9.05747 92.5049 9.20699C92.1702 9.74388 91.6673 9.34631 91.1576 9.43126L92.7258 10.5373L93.2168 11.0657L93.961 14.7815L97.9129 11.5567C98.6554 10.8109 99.4046 9.1781 100.303 8.68029C100.585 8.52398 101.812 8.01937 102.111 7.94122C102.776 7.76622 104.498 8.28272 104.305 9.11014C104.169 9.69291 104.235 10.5067 104.237 11.1711C104.237 11.3902 104.463 11.9526 104.242 12.1123C104.07 12.238 103.343 11.9322 103.081 11.9016C101.474 11.7181 101.326 12.6373 100.285 13.5055C98.9578 14.6133 97.8806 15.3625 96.6318 16.6487C94.8377 18.4989 93.2372 19.9006 93.0333 22.6496C92.9908 23.2205 93.2134 23.562 93.1981 23.9103C93.1845 24.2331 92.8702 24.5033 92.8617 24.7581C92.8532 25.013 93.0962 25.4258 93.0928 25.6977C93.0894 26.0205 92.7819 26.2787 92.7649 26.4656C92.7462 26.6678 92.9348 26.8088 92.9195 26.9567C92.9093 27.0722 92.7088 27.2829 92.6527 27.4511C92.4947 27.9234 92.8124 27.988 92.0972 27.9574C92.1057 28.2054 91.793 28.5401 91.7625 28.688C91.7319 28.8358 91.8423 29.038 91.827 29.2503C91.7573 30.2545 91.1661 30.8814 91.426 32.0452C91.5569 32.6314 91.9171 34.1129 92.1498 34.6345C92.2416 34.8384 92.6612 35.1595 92.7054 35.27C92.8192 35.5554 92.8991 36.1738 93.0656 36.4355C93.1455 36.5612 93.4071 36.619 93.5175 36.8331C93.876 37.5178 94.0765 38.3486 94.6287 38.95C94.7493 39.0826 95.0569 39.2304 95.1044 39.3289C95.1605 39.4445 95.0195 39.6093 95.1163 39.8165C95.2132 40.0238 95.5088 40.0697 95.6328 40.3262C95.8656 40.8054 95.745 41.2216 95.7331 41.6719C95.7161 42.2988 98.9187 48.1774 99.4913 49.0422C99.9093 49.6743 100.439 50.4303 100.922 51.0097C101.088 51.2102 101.357 51.3223 101.471 51.4803C101.573 51.6196 101.573 51.8405 101.685 51.9458C101.782 52.0393 102.014 52.0648 102.154 52.1565C102.347 52.2823 103.285 52.8888 103.345 53.0094C103.464 53.249 103.166 53.5922 103.379 53.7349C104.204 54.2888 105.246 51.9815 106.235 52.9177C106.992 53.6347 105.963 55.0143 105.331 55.507C104.743 55.964 103.967 56.1917 103.392 56.6266C102.837 57.048 102.373 57.8075 101.761 58.1388C101.362 58.3545 100.436 58.6468 100.045 58.3664C99.9738 58.3155 99.4046 57.0208 99.3027 56.7948C99.0461 56.2206 98.8236 55.6089 98.494 55.0551C98.3173 54.7577 97.7787 54.3771 97.5255 54.0696C96.5588 52.8973 95.519 51.3359 94.6508 50.0633C92.5559 46.9983 90.7617 43.7447 88.6464 40.6932C88.5581 40.6915 87.9668 42.0643 87.8547 42.2784C87.6916 42.5859 87.2787 43.0226 87.2006 43.3233C87.1173 43.641 87.1938 43.9622 87.1411 44.2833C86.9899 45.2024 86.2134 45.3299 85.719 45.9194C85.3809 46.3238 84.6521 47.2803 84.3734 47.717C83.8008 48.6141 84.0438 49.9325 83.9317 51.0131C83.6904 53.3187 83.0108 55.3286 82.6115 57.5084C82.5538 57.8262 82.4042 58.3868 82.6132 58.6196C83.0142 59.0664 84.3207 59.549 84.9205 59.6254C85.2841 59.6713 86.1574 59.4997 86.295 59.9499C86.4836 60.5735 86.171 60.7043 85.6528 60.8045C83.6462 61.1919 81.6227 60.6924 79.6416 60.4885C78.573 60.3781 76.9215 60.5514 75.9904 59.8072C75.4502 59.3757 75.7339 58.4327 76.0448 57.9094C76.1518 57.7293 76.4441 57.5781 76.4611 57.3827C76.4815 57.1465 76.196 56.9953 76.2028 56.7897C76.2079 56.6165 76.49 56.4822 76.529 56.2614C76.5715 56.0218 76.4084 55.7839 76.4764 55.4526C76.5188 55.2436 76.7176 55.0466 76.7992 54.8393C77.7132 52.4997 78.1873 49.783 79.0045 47.3602C79.8081 44.9782 81.0586 42.7694 81.5649 40.3211C82.005 38.1872 82.6659 36.2333 83.2147 34.1554C83.3047 33.8173 83.2945 33.4197 83.422 33.0799C83.4237 32.995 82.8409 32.5413 82.6999 32.3697C82.0916 31.6256 81.4018 29.8518 81.7178 28.9207L81.8521 26.6763C81.6465 27.0688 81.5242 27.6363 81.4715 28.0797C81.3203 29.337 81.3678 30.6571 81.3067 31.9025C81.2455 33.1479 80.9958 33.328 80.5795 34.3236C80.4945 34.5258 80.3892 35.0831 80.3246 35.1731C80.1921 35.3583 79.9407 35.1527 79.6926 35.2156C79.171 35.3481 79.7045 35.9292 79.1319 35.9224C78.8312 35.919 78.8669 35.7253 78.7429 35.6488C77.9511 35.1595 77.8135 34.8894 77.4261 34.0722C77.3514 33.9141 77.156 33.8411 77.139 33.593C77.1237 33.3654 77.7931 31.8549 77.9511 31.6086C78.087 31.3979 78.3742 31.2399 78.4965 31.0496C78.8975 30.4244 79.1472 26.4758 79.2729 25.4547C79.3647 24.6987 79.6246 23.8712 79.6892 23.1441C79.7589 22.3387 79.4921 21.4094 79.8166 20.6465C79.8948 20.4613 80.1327 20.2897 80.1802 20.0705C80.2499 19.7528 80.0647 19.5081 80.1276 19.1768C80.1768 18.9203 80.4623 18.6043 80.5608 18.3307C80.729 17.8618 81.1215 16.2392 81.1945 15.7363C81.3016 15.0108 81.0433 14.2004 81.1521 13.4002C81.4001 11.5703 84.336 9.09145 85.7615 7.98539C86.0452 7.76622 86.3969 7.67107 86.6552 7.43491C86.8676 7.23952 87.7324 5.79875 87.7545 5.55579C87.7918 5.17351 87.4435 4.20677 87.4181 3.69367C87.3875 3.10241 87.4775 2.25969 87.7528 1.73809C87.9108 1.43907 88.2591 1.19611 88.3508 0.934457C88.3508 0.92936 88.4307 0.94635 88.4341 0.891982L88.3508 0.849506H88.3491Z" fill="#FF0202"/>
<path d="M88.3491 0.849498C88.3389 0.854595 88.3593 0.931051 88.3491 0.934449C88.3151 0.946342 88.1724 0.959934 88.1775 0.891973C88.1775 0.803624 88.2964 0.873284 88.3491 0.849498Z" fill="#FF0202"/>
<path d="M123.094 27.3542V31.8566C124.691 30.0404 127.128 27.5819 129.679 27.3559C133.778 26.9923 135.657 29.7787 136.007 33.5149C136.394 37.6588 135.808 42.117 136.088 46.2609C136.238 48.451 137.284 49.0575 139.405 48.9335V49.8679H128.658C128.471 49.8679 128.471 48.9335 128.658 48.9335H130.018C130.118 48.9335 130.663 48.7517 130.797 48.6939C131.642 48.3354 131.99 47.4468 132.087 46.5854C131.937 42.7405 132.325 38.6969 132.097 34.8741C132.009 33.3891 131.684 31.1855 130.143 30.5416C127.659 29.5018 124.565 31.5066 123.096 33.4299L123.104 46.4988C123.08 47.6983 123.986 48.9301 125.26 48.9301H126.535C126.721 48.9301 126.721 49.8645 126.535 49.8645H115.788V48.9301H117.105C117.385 48.9301 118.203 48.5121 118.408 48.2794C118.83 47.8036 119.054 46.6228 119.1 45.9976C119.421 41.6617 118.928 36.8636 119.015 32.4921C118.874 31.3707 118.598 30.4515 117.273 30.4889C116.933 30.4991 115.953 30.8576 115.843 30.8253C115.72 30.7913 115.255 29.9061 115.642 29.8807L121.861 27.3508H123.092L123.094 27.3542Z" fill="#FF0202"/>
<path d="M63.2885 45.3638V46.5956C63.2885 47.1427 60.7009 49.3888 60.1182 49.7116C57.3844 51.2221 55.4357 49.6692 55.5172 46.7248C53.1454 48.434 51.2391 50.5476 48.0432 50.291C43.3981 49.9189 41.9471 43.9367 44.9442 40.7374C47.486 38.0241 52.199 36.7515 55.5461 35.326C55.5614 33.3756 55.6345 30.4617 53.7163 29.3251C52.1311 28.3855 49.2699 28.6047 48.434 30.4651C47.8207 31.8311 49.0185 34.3304 46.9627 35.0253C44.8882 35.7253 43.8959 33.7425 44.2986 31.9365C44.934 29.0889 48.3372 27.5037 51.0097 27.3491C55.1061 27.113 59.1633 27.8334 59.4657 32.6637C59.7308 36.8976 59.1786 41.4306 59.5524 45.6595C59.5949 46.1386 59.758 46.9677 60.2524 47.1682C61.3822 47.6286 62.2912 46.0587 63.0337 45.4913C63.1186 45.425 63.1407 45.3282 63.2885 45.3638ZM55.558 36.8687C55.0925 36.9418 54.6371 37.1627 54.2022 37.3394C51.059 38.6034 46.5345 40.4401 47.5301 44.6859C47.7391 45.5762 48.3728 46.4767 49.1255 46.9983C51.1983 48.4323 53.9779 46.4427 55.558 45.0682V36.8704V36.8687Z" fill="#FF0202"/>
<path d="M37.6333 62.354V62.9487C36.6394 62.8196 35.4874 63.1866 35.4297 64.3368C36.8636 69.3608 38.8396 74.2183 40.4791 79.1743C41.5121 76.1552 42.6811 73.1649 43.6665 70.1271C43.7837 69.7669 44.1048 69.0159 44.0947 68.6846C44.0811 68.2853 43.1806 65.8948 42.9665 65.3885C42.3837 64.0174 41.6107 62.8264 39.9287 62.947V62.3523H48.5087V62.947C44.9034 62.5851 46.4036 65.7555 47.0628 67.7484C48.3286 71.5797 49.839 75.3414 51.0997 79.1743C52.3689 75.4773 53.7417 71.8023 54.9667 68.0882C55.3065 67.0569 56.1424 65.0249 55.9793 64.014C55.8383 63.1322 54.3364 62.8671 53.6058 62.947V62.3523H60.147C60.2065 63.1798 60.1436 62.8587 59.5472 62.9844C58.4718 63.2137 58.047 63.8169 57.5832 64.7582L50.641 84.8134L49.8747 84.8559L44.8966 70.8457L39.9983 84.7216C39.8726 84.9595 39.5005 84.8542 39.2558 84.8542L31.9552 64.4184C31.6086 63.6861 31.3078 63.3021 30.4974 63.0727C29.9044 62.9062 29.2299 63.1424 29.393 62.3506H37.6333V62.354Z" fill="#2E2E2E"/>
<path d="M72.3782 15.8858V46.001C72.3782 46.2966 72.526 47.1512 72.6297 47.4485C72.9984 48.5189 73.8445 48.8213 74.886 48.9301C75.1221 48.9556 75.727 48.8706 75.8663 48.9692C76.0192 49.0762 75.9768 49.8662 75.8187 49.8662H65.2848C65.1251 49.8662 65.0843 49.0762 65.2372 48.9692C65.3188 48.9131 66.5149 48.9063 66.8598 48.8078C68.027 48.4747 68.2615 47.3211 68.3838 46.2541C68.0644 38.2246 68.812 29.862 68.3889 21.8715C68.3566 21.2649 68.2683 20.2455 67.9948 19.7171C67.7501 19.2448 67.254 19.0222 66.729 19.0222C66.3569 19.0222 65.3154 19.3909 65.2135 19.3603C65.0962 19.3263 64.7904 18.6994 64.8108 18.5703L71.1193 15.9436L72.3782 15.8858Z" fill="#FF0202"/>
<path d="M110.691 46.4257C110.739 46.9864 110.892 47.6337 111.242 48.084C111.925 48.9675 112.975 48.9505 114.004 48.9318V49.8662H103.428C103.268 49.8662 103.227 49.0762 103.38 48.9692C103.515 48.8757 104.187 48.9522 104.437 48.9216C106.495 48.6735 106.615 47.1954 106.704 45.4114C106.872 41.9794 106.753 38.053 106.615 34.6175C106.556 33.1173 106.981 30.3275 104.714 30.5093C104.468 30.5297 103.365 30.878 103.307 30.8355C103.215 30.7693 102.833 29.7498 103.416 29.8042C105.372 29.2129 107.414 27.9608 109.335 27.3984C109.56 27.3321 110.695 27.1283 110.695 27.3984V46.4274L110.691 46.4257Z" fill="#FF0202"/>
<path d="M82.9972 69.0652V72.1234C84.5348 70.3955 86.3902 68.6183 88.9319 69.1195C90.9028 69.5086 91.7081 71.6528 91.8321 73.4401C92.0139 76.0889 91.6588 78.9467 91.8287 81.5988C91.9307 83.1704 92.4217 83.901 94.1258 83.7617V84.3563H86.7351V83.7617C87.9957 83.8602 88.9948 83.6105 89.1171 82.1935C88.971 79.4971 89.3006 76.6207 89.1171 73.9465C88.8164 69.5545 84.8763 70.7897 82.9989 73.2719C83.1433 76.0736 82.8001 79.0758 82.9938 81.8537C83.0771 83.0379 83.3574 83.5799 84.579 83.7515C85.1244 83.828 85.5729 83.5187 85.4608 84.3563H78.0701V83.7617C79.6467 83.901 80.17 83.2605 80.2822 81.7687C80.4623 79.351 80.4385 75.5299 80.2822 73.0969C80.2533 72.6535 80.1531 71.7445 79.8133 71.4404C79.1829 70.8746 78.121 71.5355 77.9885 71.4404C77.9511 71.4132 77.6878 70.7285 78.0089 70.7455C79.2951 70.4244 80.8259 69.3829 82.0611 69.1059C82.3737 69.0363 82.6812 69.0686 82.9972 69.0652Z" fill="#2E2E2E"/>
<path d="M34.3524 95.281C37.7148 97.9536 42.1458 98.0233 46.164 97.014C48.6259 98.747 51.4939 99.8395 54.5385 99.9024L53.7315 100.071C50.9943 100.162 48.281 99.3417 45.9873 97.8839C42.6946 98.8592 38.9313 98.8439 35.9767 96.9308C35.9291 96.9869 36.0413 97.1483 36.0803 97.189C39.5871 100.726 45.3009 102.181 50.1669 101.945C56.3649 101.644 61.3703 98.3478 67.7484 98.9679C73.6389 99.5405 78.4233 103.144 81.2964 108.185C81.2046 108.187 81.0262 107.976 80.9634 107.903C76.5867 102.882 72.103 100.475 65.1965 100.832C60.2608 101.087 56.0234 103.681 51.1829 103.978C45.0631 104.352 39.8573 102.247 35.8917 97.6087C35.2053 96.8068 34.502 95.9029 34.0228 94.9752C34.1757 95.033 34.2658 95.2097 34.3524 95.2793V95.281Z" fill="#FF0202"/>
<path d="M108.143 75.0967H97.7786C97.8194 77.6282 98.5636 80.1445 100.844 81.5037C102.983 82.778 105.596 82.2292 106.882 80.0799C107.013 79.8608 107.483 78.7479 107.543 78.7003C107.633 78.629 108.044 78.826 108.059 78.8923C108.185 79.3935 107.594 80.8122 107.336 81.2998C104.123 87.3789 96.5044 85.1362 95.5801 78.7802C95.2726 76.6666 95.5376 74.0756 96.6369 72.2152C99.4777 67.4086 107.234 67.9727 108.046 73.9601C108.095 74.327 108.02 74.7195 108.141 75.0967H108.143ZM104.66 74.1622C104.692 72.8659 104.398 71.6749 103.341 70.8508C100.871 68.9242 97.7735 71.3996 97.8636 74.1622H104.66Z" fill="#2E2E2E"/>
<path d="M128.701 95.7398C124.418 101.499 119.625 104.398 112.174 103.983C108.105 103.757 104.734 101.897 100.852 101.204C94.7952 100.12 88.9199 101.34 84.3547 105.552L82.1901 107.889C82.129 107.657 82.4246 107.344 82.552 107.147C86.3034 101.425 92.1549 98.3308 99.0937 98.9679C103.249 99.3502 106.986 101.246 111.17 101.758C117.878 102.578 123.086 101.036 127.936 96.4177C128.183 96.1832 128.426 95.9403 128.701 95.7381V95.7398Z" fill="#FF0202"/>
<path d="M119.696 74.1623C119.524 74.1504 119.264 74.2234 119.142 74.079C119.061 73.9839 118.84 73.0324 118.741 72.7809C118.23 71.4761 117.514 70.4329 116.062 70.1084C114.33 69.7227 112.146 70.545 112.682 72.6382C113.15 74.4613 116.604 75.4552 118.138 76.3557C123.481 79.4938 120.343 85.5661 114.494 84.7573C113.913 84.6775 111.989 84.0624 111.626 84.2306C111.364 84.3513 111.255 84.7998 110.689 84.6112V79.2593C110.82 79.2848 111.214 79.2151 111.276 79.2678C111.315 79.3018 111.456 80.0884 111.515 80.26C112.115 82.0321 113.433 83.6326 115.414 83.8365C118.16 84.1185 119.467 81.3984 117.401 79.5566C115.377 77.7523 111.288 77.2375 110.712 74.1826C110.08 70.8271 112.876 68.6489 116.06 69.089C116.741 69.1824 117.805 69.6599 118.378 69.6615C119.037 69.6615 118.996 69.0771 119.241 68.9938C119.368 68.9497 119.694 68.987 119.694 69.1094V74.164L119.696 74.1623Z" fill="#2E2E2E"/>
<path d="M132.694 74.1622C132.563 74.1367 132.17 74.2081 132.107 74.1537C132.067 74.1181 131.888 73.2974 131.824 73.1207C131.188 71.3962 130.407 70.161 128.393 70.0115C126.687 69.8841 125.031 70.997 125.712 72.8625C126.706 75.5792 133.353 75.6489 133.788 79.8234C134.223 83.9979 130.317 85.2568 126.986 84.6707C126.402 84.567 125.33 84.161 124.837 84.183C124.297 84.2068 124.358 84.8219 123.689 84.6129V79.261C123.855 79.2729 124.136 79.2015 124.243 79.3442C124.305 79.4275 124.555 80.5149 124.667 80.7884C125.269 82.2683 126.609 83.6258 128.257 83.8246C130.033 84.0386 131.557 83.1144 131.334 81.1724C130.972 78.0258 123.952 77.9425 123.605 73.7799C123.339 70.5858 125.972 68.6795 128.976 69.089C129.625 69.1773 130.955 69.7074 131.455 69.6598C131.914 69.6156 132.01 69.0669 132.243 68.9955C132.367 68.9564 132.695 68.9802 132.695 69.1093V74.1639L132.694 74.1622Z" fill="#2E2E2E"/>
<path d="M73.7374 64.5628V69.4899H77.2204V70.5943H73.8649C73.8564 70.5943 73.7374 70.7132 73.7374 70.7217V81.0857C73.7374 81.3831 73.9957 82.0814 74.2132 82.309C74.9862 83.1178 76.0736 82.6488 76.7107 81.9352C77.0216 81.5869 76.9044 81.2454 77.6452 81.3831C77.1202 83.7498 74.0433 85.8056 71.9518 83.8908C71.437 83.4202 71.019 82.2733 71.019 81.5954V70.7217C71.019 70.7132 70.9001 70.5943 70.8916 70.5943H68.6404C68.6472 70.404 68.586 70.1967 68.7236 70.0404C68.7848 69.9724 69.6785 69.5205 69.9061 69.354C70.7591 68.7322 71.6935 67.6567 72.2219 66.7426C72.4258 66.3892 73.0697 64.7446 73.1836 64.646C73.3416 64.5084 73.5437 64.5679 73.7374 64.5628Z" fill="#2E2E2E"/>
<path d="M82.1493 106.614C82.5095 105.524 83.116 104.446 83.7277 103.477C87.1852 98.0029 92.583 94.9667 99.1803 95.6548C100.376 95.7789 101.561 96.1017 102.76 96.2376C108.895 96.9376 114.927 95.7313 119.147 90.9825C119.744 90.3114 120.212 89.5333 120.802 88.8571C120.675 89.4041 120.289 89.9767 119.988 90.4643C116.412 96.2767 110.798 98.6825 104.026 98.1167C102.036 97.9502 100.084 97.3929 98.0827 97.3488C92.2975 97.223 86.7842 100.05 83.4405 104.717C82.9971 105.338 82.6675 106.065 82.151 106.614H82.1493Z" fill="#2E2E2E"/>
<path d="M42.6455 88.9437C42.6217 88.6566 42.8578 88.6939 42.8154 88.9437C42.7593 88.9488 42.7015 88.9369 42.6455 88.9437C42.6947 89.5231 44.6843 91.6621 45.1923 92.1311C49.5724 96.1645 55.3762 96.9019 61.1104 96.1526C62.1077 96.0218 63.0915 95.7568 64.0973 95.6565C70.9596 94.9718 76.4815 98.2866 79.8693 104.094C80.3501 104.918 80.8802 105.869 81.1283 106.785C80.7783 106.405 80.5829 105.883 80.2992 105.45C76.9266 100.314 71.2417 97.1856 65.0284 97.3522C63.083 97.4048 61.1869 97.9553 59.2551 98.1201C52.5423 98.6893 46.8471 96.3344 43.2928 90.5527C43.1586 90.3352 42.3787 89.0813 42.479 88.9454C42.535 88.9386 42.5928 88.9522 42.6489 88.9454L42.6455 88.9437Z" fill="#FF0202"/>
<path d="M65.3274 69.0652V82.36C65.3274 82.4042 65.5058 82.9054 65.5482 82.9887C65.9356 83.76 66.7698 83.7974 67.5361 83.76V84.3547H60.3153V83.76C61.406 83.845 62.2827 83.5986 62.4866 82.4059C62.8621 80.1989 62.6089 76.8331 62.5206 74.5462C62.4866 73.6627 62.8128 71.3062 61.5368 71.1907C61.1953 71.1601 60.4631 71.4523 60.3679 71.4302C60.1878 71.3894 60.1216 70.9766 60.1403 70.8118L64.3249 69.1212L65.3291 69.0635L65.3274 69.0652Z" fill="#2E2E2E"/>
<path d="M120.46 88.8588C120.571 88.9658 119.786 89.5027 119.689 89.5724C116.294 91.9986 112.429 92.9551 108.297 92.1447C107.908 92.0682 107.042 91.7301 106.746 91.7505C106.554 91.7641 105.842 92.16 105.553 92.2585C101.032 93.7927 96.6997 92.2058 92.2567 93.4886C86.6007 95.1214 83.1466 99.5983 81.9556 105.19C81.9386 105.271 81.925 105.445 81.8094 105.424C82.207 98.6196 87.8817 92.8973 94.6048 92.0971C98.0946 91.6825 101.768 92.6663 105.217 91.4956C105.589 91.3682 106.365 90.9061 106.659 90.8925C107.091 90.8738 108.493 91.426 109.077 91.5381C112.241 92.1498 115.681 91.4956 118.512 90.0073C119.183 89.6556 119.769 89.1612 120.464 88.8588H120.46Z" fill="#2E2E2E"/>
<path d="M81.2964 104.66C81.1741 104.68 81.1775 104.51 81.1537 104.422C79.6653 99.0716 76.0566 94.717 70.477 93.3493C66.4385 92.3588 62.4373 93.6398 58.3613 92.4675C57.9213 92.3418 56.7693 91.7709 56.5264 91.7471C56.0693 91.7012 53.9575 92.3706 53.1351 92.425C50.0854 92.6306 45.323 91.4073 43.0769 89.2326C43.0226 89.1799 42.8068 89.0355 42.8985 88.9437C42.958 88.8843 44.0403 89.6335 44.2 89.7219C47.3517 91.4651 50.9655 92.2534 54.5368 91.4498C55.0686 91.3291 56.1815 90.8602 56.6164 90.8908C56.873 90.9095 57.9892 91.4906 58.4446 91.618C62.2861 92.6918 66.2669 91.4957 70.1678 92.3825C74.9862 93.4767 79.1081 97.2213 80.7238 101.875C81.0262 102.747 81.3287 103.734 81.2947 104.658L81.2964 104.66Z" fill="#FF0202"/>
<path d="M108.207 15.9079C111.656 15.4033 112.006 20.2676 109.184 20.7077C105.732 21.2463 105.207 16.348 108.207 15.9079Z" fill="#FF0202"/>
<path d="M127.936 96.4194C127.253 96.9121 126.582 97.3726 125.785 97.709C123.707 98.5874 121.468 98.6825 119.254 98.3495C118.787 98.2798 117.542 97.8958 117.197 97.9502C116.945 97.9893 115.426 98.9017 114.939 99.0954C113.206 99.7818 111.332 100.145 109.461 100.072L108.654 99.9041C111.704 99.8395 114.565 98.7488 117.042 97.0294C120.868 97.9162 124.727 97.9978 128.135 95.8094C128.398 95.6412 128.876 95.1434 129.086 95.0619C129.515 94.8954 128.736 95.6956 128.702 95.7398C128.427 95.942 128.184 96.1849 127.938 96.4194H127.936Z" fill="#2E2E2E"/>
<path d="M63.5213 61.2701C65.047 61.0084 66.1582 62.5053 65.3137 63.8271C64.3742 65.2984 62.0193 64.4506 62.2776 62.5732C62.354 62.0193 62.9708 61.3635 63.5213 61.2701Z" fill="#2E2E2E"/>
<path d="M42.2206 103.808L35.7864 105.574C35.2937 105.638 34.8044 105.584 34.3202 105.507L41.9658 103.672L42.2206 103.808Z" fill="#2E2E2E"/>
<path d="M129.041 105.592L127.833 105.659C125.756 104.991 123.478 104.597 121.424 103.904C121.293 103.859 121.181 103.978 121.225 103.725L129.041 105.592Z" fill="#2E2E2E"/>
<path d="M82.0203 106.868C82.0746 106.897 82.0746 106.924 82.0203 106.953V106.868Z" fill="#2E2E2E"/>
<path d="M82.1052 107.973C82.1596 108.002 82.1596 108.029 82.1052 108.058V107.973Z" fill="#FF0202"/>
<path d="M82.1052 106.698C82.1596 106.727 82.1596 106.755 82.1052 106.783V106.698Z" fill="#2E2E2E"/>
</g>
<defs>
<clipPath id="clip0_477_9647">
<rect width="163.106" height="112.73" fill="white"/>
</clipPath>
</defs>
</svg>
